<?xml version="1.0" encoding="UTF-8" standalone="no"?>
<!DOCTYPE svg PUBLIC "-//W3C//DTD SVG 1.1//EN"
 "http://www.w3.org/Graphics/SVG/1.1/DTD/svg11.dtd">
<!-- Generated by graphviz version 2.43.0 (0)
 -->
<!-- Title: hgf&#45;nodes Pages: 1 -->
<svg width="279pt" height="317pt"
 viewBox="0.00 0.00 278.75 317.48" xmlns="http://www.w3.org/2000/svg" xmlns:xlink="http://www.w3.org/1999/xlink">
<g id="graph0" class="graph" transform="scale(1 1) rotate(0) translate(4 313.48)">
<title>hgf&#45;nodes</title>
<polygon fill="white" stroke="transparent" points="-4,4 -4,-313.48 274.75,-313.48 274.75,4 -4,4"/>
<!-- x_0 -->
<g id="node1" class="node">
<title>x_0</title>
<ellipse fill="#ced6e4" stroke="black" cx="126" cy="-32.5" rx="32.49" ry="32.49"/>
<text text-anchor="middle" x="126" y="-28.8" font-family="Times,serif" font-size="14.00">EF&#45;0</text>
</g>
<!-- x_1 -->
<g id="node2" class="node">
<title>x_1</title>
<ellipse fill="none" stroke="black" cx="18" cy="-123.74" rx="18" ry="18"/>
<text text-anchor="middle" x="18" y="-120.04" font-family="Times,serif" font-size="14.00">1</text>
</g>
<!-- x_1&#45;&gt;x_0 -->
<g id="edge1" class="edge">
<title>x_1&#45;&gt;x_0</title>
<path fill="none" stroke="black" d="M31.68,-111.44C47.11,-98.69 72.75,-77.5 93.41,-60.43"/>
<polygon fill="black" stroke="black" points="95.86,-62.95 101.34,-53.88 91.4,-57.55 95.86,-62.95"/>
</g>
<!-- x_2 -->
<g id="node3" class="node">
<title>x_2</title>
<ellipse fill="none" stroke="black" cx="18" cy="-205.24" rx="18" ry="18"/>
<text text-anchor="middle" x="18" y="-201.54" font-family="Times,serif" font-size="14.00">2</text>
</g>
<!-- x_2&#45;&gt;x_1 -->
<g id="edge2" class="edge">
<title>x_2&#45;&gt;x_1</title>
<path fill="none" stroke="black" d="M18,-186.99C18,-176.78 18,-163.62 18,-152.03"/>
<polygon fill="black" stroke="black" points="21.5,-151.96 18,-141.96 14.5,-151.96 21.5,-151.96"/>
</g>
<!-- x_3 -->
<g id="node4" class="node">
<title>x_3</title>
<ellipse fill="none" stroke="black" cx="18" cy="-286.73" rx="18" ry="18"/>
<text text-anchor="middle" x="18" y="-283.03" font-family="Times,serif" font-size="14.00">3</text>
</g>
<!-- x_3&#45;&gt;x_2 -->
<g id="edge3" class="edge">
<title>x_3&#45;&gt;x_2</title>
<path fill="none" stroke="gray" stroke-dasharray="5,2" d="M18,-268.48C18,-257.75 18,-243.76 18,-231.76"/>
<ellipse fill="gray" stroke="gray" cx="18" cy="-227.45" rx="4" ry="4"/>
</g>
<!-- x_4 -->
<g id="node5" class="node">
<title>x_4</title>
<ellipse fill="none" stroke="black" cx="72" cy="-123.74" rx="18" ry="18"/>
<text text-anchor="middle" x="72" y="-120.04" font-family="Times,serif" font-size="14.00">4</text>
</g>
<!-- x_4&#45;&gt;x_0 -->
<g id="edge4" class="edge">
<title>x_4&#45;&gt;x_0</title>
<path fill="none" stroke="black" d="M80.92,-108.01C87.26,-97.53 96.06,-82.98 104.2,-69.52"/>
<polygon fill="black" stroke="black" points="107.25,-71.25 109.43,-60.88 101.26,-67.63 107.25,-71.25"/>
</g>
<!-- x_5 -->
<g id="node6" class="node">
<title>x_5</title>
<ellipse fill="none" stroke="black" cx="72" cy="-205.24" rx="18" ry="18"/>
<text text-anchor="middle" x="72" y="-201.54" font-family="Times,serif" font-size="14.00">5</text>
</g>
<!-- x_5&#45;&gt;x_4 -->
<g id="edge5" class="edge">
<title>x_5&#45;&gt;x_4</title>
<path fill="none" stroke="black" d="M72,-186.99C72,-176.78 72,-163.62 72,-152.03"/>
<polygon fill="black" stroke="black" points="75.5,-151.96 72,-141.96 68.5,-151.96 75.5,-151.96"/>
</g>
<!-- x_6 -->
<g id="node7" class="node">
<title>x_6</title>
<ellipse fill="none" stroke="black" cx="72" cy="-286.73" rx="18" ry="18"/>
<text text-anchor="middle" x="72" y="-283.03" font-family="Times,serif" font-size="14.00">6</text>
</g>
<!-- x_6&#45;&gt;x_5 -->
<g id="edge6" class="edge">
<title>x_6&#45;&gt;x_5</title>
<path fill="none" stroke="gray" stroke-dasharray="5,2" d="M72,-268.48C72,-257.75 72,-243.76 72,-231.76"/>
<ellipse fill="gray" stroke="gray" cx="72" cy="-227.45" rx="4" ry="4"/>
</g>
<!-- x_7 -->
<g id="node8" class="node">
<title>x_7</title>
<ellipse fill="none" stroke="black" cx="126" cy="-123.74" rx="18" ry="18"/>
<text text-anchor="middle" x="126" y="-120.04" font-family="Times,serif" font-size="14.00">7</text>
</g>
<!-- x_7&#45;&gt;x_0 -->
<g id="edge7" class="edge">
<title>x_7&#45;&gt;x_0</title>
<path fill="none" stroke="black" d="M126,-105.53C126,-96.86 126,-85.93 126,-75.22"/>
<polygon fill="black" stroke="black" points="129.5,-75.1 126,-65.1 122.5,-75.1 129.5,-75.1"/>
</g>
<!-- x_8 -->
<g id="node9" class="node">
<title>x_8</title>
<ellipse fill="none" stroke="black" cx="126" cy="-205.24" rx="18" ry="18"/>
<text text-anchor="middle" x="126" y="-201.54" font-family="Times,serif" font-size="14.00">8</text>
</g>
<!-- x_8&#45;&gt;x_7 -->
<g id="edge8" class="edge">
<title>x_8&#45;&gt;x_7</title>
<path fill="none" stroke="black" d="M126,-186.99C126,-176.78 126,-163.62 126,-152.03"/>
<polygon fill="black" stroke="black" points="129.5,-151.96 126,-141.96 122.5,-151.96 129.5,-151.96"/>
</g>
<!-- x_9 -->
<g id="node10" class="node">
<title>x_9</title>
<ellipse fill="none" stroke="black" cx="126" cy="-286.73" rx="18" ry="18"/>
<text text-anchor="middle" x="126" y="-283.03" font-family="Times,serif" font-size="14.00">9</text>
</g>
<!-- x_9&#45;&gt;x_8 -->
<g id="edge9" class="edge">
<title>x_9&#45;&gt;x_8</title>
<path fill="none" stroke="gray" stroke-dasharray="5,2" d="M126,-268.48C126,-257.75 126,-243.76 126,-231.76"/>
<ellipse fill="gray" stroke="gray" cx="126" cy="-227.45" rx="4" ry="4"/>
</g>
<!-- x_10 -->
<g id="node11" class="node">
<title>x_10</title>
<ellipse fill="none" stroke="black" cx="185" cy="-123.74" rx="23" ry="23"/>
<text text-anchor="middle" x="185" y="-120.04" font-family="Times,serif" font-size="14.00">10</text>
</g>
<!-- x_10&#45;&gt;x_0 -->
<g id="edge10" class="edge">
<title>x_10&#45;&gt;x_0</title>
<path fill="none" stroke="black" d="M172.78,-104.25C165.99,-93.98 157.31,-80.86 149.28,-68.71"/>
<polygon fill="black" stroke="black" points="152.02,-66.5 143.58,-60.09 146.18,-70.36 152.02,-66.5"/>
</g>
<!-- x_11 -->
<g id="node12" class="node">
<title>x_11</title>
<ellipse fill="none" stroke="black" cx="185" cy="-205.24" rx="23" ry="23"/>
<text text-anchor="middle" x="185" y="-201.54" font-family="Times,serif" font-size="14.00">11</text>
</g>
<!-- x_11&#45;&gt;x_10 -->
<g id="edge11" class="edge">
<title>x_11&#45;&gt;x_10</title>
<path fill="none" stroke="black" d="M185,-182.09C185,-174.19 185,-165.12 185,-156.56"/>
<polygon fill="black" stroke="black" points="188.5,-156.49 185,-146.49 181.5,-156.49 188.5,-156.49"/>
</g>
<!-- x_12 -->
<g id="node13" class="node">
<title>x_12</title>
<ellipse fill="none" stroke="black" cx="185" cy="-286.73" rx="23" ry="23"/>
<text text-anchor="middle" x="185" y="-283.03" font-family="Times,serif" font-size="14.00">12</text>
</g>
<!-- x_12&#45;&gt;x_11 -->
<g id="edge12" class="edge">
<title>x_12&#45;&gt;x_11</title>
<path fill="none" stroke="gray" stroke-dasharray="5,2" d="M185,-263.59C185,-255.08 185,-245.22 185,-236.1"/>
<ellipse fill="gray" stroke="gray" cx="185" cy="-231.99" rx="4" ry="4"/>
</g>
<!-- x_13 -->
<g id="node14" class="node">
<title>x_13</title>
<ellipse fill="none" stroke="black" cx="248" cy="-123.74" rx="23" ry="23"/>
<text text-anchor="middle" x="248" y="-120.04" font-family="Times,serif" font-size="14.00">13</text>
</g>
<!-- x_13&#45;&gt;x_0 -->
<g id="edge13" class="edge">
<title>x_13&#45;&gt;x_0</title>
<path fill="none" stroke="black" d="M230,-109.57C211.78,-96.25 183.15,-75.3 160.53,-58.76"/>
<polygon fill="black" stroke="black" points="162.33,-55.74 152.2,-52.66 158.2,-61.39 162.33,-55.74"/>
</g>
<!-- x_14 -->
<g id="node15" class="node">
<title>x_14</title>
<ellipse fill="none" stroke="black" cx="248" cy="-205.24" rx="23" ry="23"/>
<text text-anchor="middle" x="248" y="-201.54" font-family="Times,serif" font-size="14.00">14</text>
</g>
<!-- x_14&#45;&gt;x_13 -->
<g id="edge14" class="edge">
<title>x_14&#45;&gt;x_13</title>
<path fill="none" stroke="black" d="M248,-182.09C248,-174.19 248,-165.12 248,-156.56"/>
<polygon fill="black" stroke="black" points="251.5,-156.49 248,-146.49 244.5,-156.49 251.5,-156.49"/>
</g>
<!-- x_15 -->
<g id="node16" class="node">
<title>x_15</title>
<ellipse fill="none" stroke="black" cx="248" cy="-286.73" rx="23" ry="23"/>
<text text-anchor="middle" x="248" y="-283.03" font-family="Times,serif" font-size="14.00">15</text>
</g>
<!-- x_15&#45;&gt;x_14 -->
<g id="edge15" class="edge">
<title>x_15&#45;&gt;x_14</title>
<path fill="none" stroke="gray" stroke-dasharray="5,2" d="M248,-263.59C248,-255.08 248,-245.22 248,-236.1"/>
<ellipse fill="gray" stroke="gray" cx="248" cy="-231.99" rx="4" ry="4"/>
</g>
</g>
</svg>