<?xml version="1.0" encoding="UTF-8" standalone="no"?>
<!DOCTYPE svg PUBLIC "-//W3C//DTD SVG 1.1//EN"
 "http://www.w3.org/Graphics/SVG/1.1/DTD/svg11.dtd">
<!-- Generated by graphviz version 2.43.0 (0)
 -->
<!-- Title: %3 Pages: 1 -->
<svg width="181pt" height="200pt"
 viewBox="0.00 0.00 180.53 200.08" xmlns="http://www.w3.org/2000/svg" xmlns:xlink="http://www.w3.org/1999/xlink">
<g id="graph0" class="graph" transform="scale(1 1) rotate(0) translate(4 196.08)">
<title>%3</title>
<polygon fill="white" stroke="transparent" points="-4,4 -4,-196.08 176.53,-196.08 176.53,4 -4,4"/>
<!-- hgf_loglike -->
<g id="node1" class="node">
<title>hgf_loglike</title>
<polygon fill="lightgrey" stroke="black" points="158.16,-23.74 158.16,-57.39 116.04,-81.19 56.49,-81.19 14.38,-57.39 14.38,-23.74 56.49,0.06 116.04,0.06 158.16,-23.74"/>
<text text-anchor="middle" x="86.27" y="-51.86" font-family="Times,serif" font-size="14.00">hgf_loglike</text>
<text text-anchor="middle" x="86.27" y="-36.86" font-family="Times,serif" font-size="14.00">~</text>
<text text-anchor="middle" x="86.27" y="-21.86" font-family="Times,serif" font-size="14.00">Potential</text>
</g>
<!-- tonic_volatility -->
<g id="node2" class="node">
<title>tonic_volatility</title>
<ellipse fill="none" stroke="black" cx="86.27" cy="-154.61" rx="86.03" ry="37.45"/>
<text text-anchor="middle" x="86.27" y="-165.91" font-family="Times,serif" font-size="14.00">tonic_volatility</text>
<text text-anchor="middle" x="86.27" y="-150.91" font-family="Times,serif" font-size="14.00">~</text>
<text text-anchor="middle" x="86.27" y="-135.91" font-family="Times,serif" font-size="14.00">Normal</text>
</g>
<!-- tonic_volatility&#45;&gt;hgf_loglike -->
<g id="edge1" class="edge">
<title>tonic_volatility&#45;&gt;hgf_loglike</title>
<path fill="none" stroke="black" d="M86.27,-116.92C86.27,-108.84 86.27,-100.16 86.27,-91.65"/>
<polygon fill="black" stroke="black" points="89.77,-91.43 86.27,-81.43 82.77,-91.43 89.77,-91.43"/>
</g>
</g>
</svg>