<?xml version="1.0" encoding="UTF-8" standalone="no"?>
<!DOCTYPE svg PUBLIC "-//W3C//DTD SVG 1.1//EN"
 "http://www.w3.org/Graphics/SVG/1.1/DTD/svg11.dtd">
<!-- Generated by graphviz version 2.43.0 (0)
 -->
<!-- Title: %3 Pages: 1 -->
<svg width="604pt" height="200pt"
 viewBox="0.00 0.00 604.14 200.08" xmlns="http://www.w3.org/2000/svg" xmlns:xlink="http://www.w3.org/1999/xlink">
<g id="graph0" class="graph" transform="scale(1 1) rotate(0) translate(4 196.08)">
<title>%3</title>
<polygon fill="white" stroke="transparent" points="-4,4 -4,-196.08 600.14,-196.08 600.14,4 -4,4"/>
<!-- tonic_volatility_2 -->
<g id="node1" class="node">
<title>tonic_volatility_2</title>
<ellipse fill="none" stroke="black" cx="96.87" cy="-154.61" rx="96.75" ry="37.45"/>
<text text-anchor="middle" x="96.87" y="-165.91" font-family="Times,serif" font-size="14.00">tonic_volatility_2</text>
<text text-anchor="middle" x="96.87" y="-150.91" font-family="Times,serif" font-size="14.00">~</text>
<text text-anchor="middle" x="96.87" y="-135.91" font-family="Times,serif" font-size="14.00">Normal</text>
</g>
<!-- hgf_loglike -->
<g id="node3" class="node">
<title>hgf_loglike</title>
<polygon fill="lightgrey" stroke="black" points="380.76,-23.74 380.76,-57.39 338.65,-81.19 279.1,-81.19 236.98,-57.39 236.98,-23.74 279.1,0.06 338.65,0.06 380.76,-23.74"/>
<text text-anchor="middle" x="308.87" y="-51.86" font-family="Times,serif" font-size="14.00">hgf_loglike</text>
<text text-anchor="middle" x="308.87" y="-36.86" font-family="Times,serif" font-size="14.00">~</text>
<text text-anchor="middle" x="308.87" y="-21.86" font-family="Times,serif" font-size="14.00">Potential</text>
</g>
<!-- tonic_volatility_2&#45;&gt;hgf_loglike -->
<g id="edge1" class="edge">
<title>tonic_volatility_2&#45;&gt;hgf_loglike</title>
<path fill="none" stroke="black" d="M153.13,-123.87C182.37,-108.42 218.13,-89.52 248.01,-73.73"/>
<polygon fill="black" stroke="black" points="249.88,-76.7 257.09,-68.93 246.61,-70.51 249.88,-76.7"/>
</g>
<!-- tonic_volatility_3 -->
<g id="node2" class="node">
<title>tonic_volatility_3</title>
<ellipse fill="none" stroke="black" cx="308.87" cy="-154.61" rx="96.75" ry="37.45"/>
<text text-anchor="middle" x="308.87" y="-165.91" font-family="Times,serif" font-size="14.00">tonic_volatility_3</text>
<text text-anchor="middle" x="308.87" y="-150.91" font-family="Times,serif" font-size="14.00">~</text>
<text text-anchor="middle" x="308.87" y="-135.91" font-family="Times,serif" font-size="14.00">Normal</text>
</g>
<!-- tonic_volatility_3&#45;&gt;hgf_loglike -->
<g id="edge2" class="edge">
<title>tonic_volatility_3&#45;&gt;hgf_loglike</title>
<path fill="none" stroke="black" d="M308.87,-116.92C308.87,-108.84 308.87,-100.16 308.87,-91.65"/>
<polygon fill="black" stroke="black" points="312.37,-91.43 308.87,-81.43 305.37,-91.43 312.37,-91.43"/>
</g>
<!-- tonic_volatility -->
<g id="node4" class="node">
<title>tonic_volatility</title>
<ellipse fill="none" stroke="black" cx="509.87" cy="-154.61" rx="86.03" ry="37.45"/>
<text text-anchor="middle" x="509.87" y="-165.91" font-family="Times,serif" font-size="14.00">tonic_volatility</text>
<text text-anchor="middle" x="509.87" y="-150.91" font-family="Times,serif" font-size="14.00">~</text>
<text text-anchor="middle" x="509.87" y="-135.91" font-family="Times,serif" font-size="14.00">Normal</text>
</g>
<!-- tonic_volatility&#45;&gt;hgf_loglike -->
<g id="edge3" class="edge">
<title>tonic_volatility&#45;&gt;hgf_loglike</title>
<path fill="none" stroke="black" d="M457.85,-124.61C430.46,-109.34 396.74,-90.54 368.32,-74.7"/>
<polygon fill="black" stroke="black" points="369.73,-71.48 359.29,-69.67 366.32,-77.59 369.73,-71.48"/>
</g>
</g>
</svg>