<?xml version="1.0" encoding="UTF-8" standalone="no"?>
<!DOCTYPE svg PUBLIC "-//W3C//DTD SVG 1.1//EN"
 "http://www.w3.org/Graphics/SVG/1.1/DTD/svg11.dtd">
<!-- Generated by graphviz version 2.43.0 (0)
 -->
<!-- Title: %3 Pages: 1 -->
<svg width="392pt" height="200pt"
 viewBox="0.00 0.00 392.14 200.08" xmlns="http://www.w3.org/2000/svg" xmlns:xlink="http://www.w3.org/1999/xlink">
<g id="graph0" class="graph" transform="scale(1 1) rotate(0) translate(4 196.08)">
<title>%3</title>
<polygon fill="white" stroke="transparent" points="-4,4 -4,-196.08 388.14,-196.08 388.14,4 -4,4"/>
<!-- hgf_loglike -->
<g id="node1" class="node">
<title>hgf_loglike</title>
<polygon fill="lightgrey" stroke="black" points="258.16,-23.74 258.16,-57.39 216.04,-81.19 156.49,-81.19 114.38,-57.39 114.38,-23.74 156.49,0.06 216.04,0.06 258.16,-23.74"/>
<text text-anchor="middle" x="186.27" y="-51.86" font-family="Times,serif" font-size="14.00">hgf_loglike</text>
<text text-anchor="middle" x="186.27" y="-36.86" font-family="Times,serif" font-size="14.00">~</text>
<text text-anchor="middle" x="186.27" y="-21.86" font-family="Times,serif" font-size="14.00">Potential</text>
</g>
<!-- tonic_volatility -->
<g id="node2" class="node">
<title>tonic_volatility</title>
<ellipse fill="none" stroke="black" cx="86.27" cy="-154.61" rx="86.03" ry="37.45"/>
<text text-anchor="middle" x="86.27" y="-165.91" font-family="Times,serif" font-size="14.00">tonic_volatility</text>
<text text-anchor="middle" x="86.27" y="-150.91" font-family="Times,serif" font-size="14.00">~</text>
<text text-anchor="middle" x="86.27" y="-135.91" font-family="Times,serif" font-size="14.00">Normal</text>
</g>
<!-- tonic_volatility&#45;&gt;hgf_loglike -->
<g id="edge1" class="edge">
<title>tonic_volatility&#45;&gt;hgf_loglike</title>
<path fill="none" stroke="black" d="M116.81,-119.38C125.87,-109.23 135.94,-97.95 145.54,-87.2"/>
<polygon fill="black" stroke="black" points="148.37,-89.28 152.42,-79.49 143.15,-84.62 148.37,-89.28"/>
</g>
<!-- tonic_volatility_2 -->
<g id="node3" class="node">
<title>tonic_volatility_2</title>
<ellipse fill="none" stroke="black" cx="287.27" cy="-154.61" rx="96.75" ry="37.45"/>
<text text-anchor="middle" x="287.27" y="-165.91" font-family="Times,serif" font-size="14.00">tonic_volatility_2</text>
<text text-anchor="middle" x="287.27" y="-150.91" font-family="Times,serif" font-size="14.00">~</text>
<text text-anchor="middle" x="287.27" y="-135.91" font-family="Times,serif" font-size="14.00">Normal</text>
</g>
<!-- tonic_volatility_2&#45;&gt;hgf_loglike -->
<g id="edge2" class="edge">
<title>tonic_volatility_2&#45;&gt;hgf_loglike</title>
<path fill="none" stroke="black" d="M256.14,-119.08C247,-108.93 236.86,-97.69 227.2,-86.97"/>
<polygon fill="black" stroke="black" points="229.57,-84.38 220.28,-79.29 224.37,-89.06 229.57,-84.38"/>
</g>
</g>
</svg>