<?xml version="1.0" encoding="UTF-8" standalone="no"?>
<!DOCTYPE svg PUBLIC "-//W3C//DTD SVG 1.1//EN"
 "http://www.w3.org/Graphics/SVG/1.1/DTD/svg11.dtd">
<!-- Generated by graphviz version 2.43.0 (0)
 -->
<!-- Title: deep&#45;network Pages: 1 -->
<svg width="142pt" height="246pt"
 viewBox="0.00 0.00 142.00 246.00" xmlns="http://www.w3.org/2000/svg" xmlns:xlink="http://www.w3.org/1999/xlink">
<g id="graph0" class="graph" transform="scale(1 1) rotate(0) translate(4 242)">
<title>deep&#45;network</title>
<polygon fill="white" stroke="transparent" points="-4,4 -4,-242 138,-242 138,4 -4,4"/>
<!-- layer_0 -->
<g id="node1" class="node">
<title>layer_0</title>
<path fill="#e8e8e8" stroke="#444444" stroke-width="1.2" d="M122,-238C122,-238 12,-238 12,-238 6,-238 0,-232 0,-226 0,-226 0,-214 0,-214 0,-208 6,-202 12,-202 12,-202 122,-202 122,-202 128,-202 134,-208 134,-214 134,-214 134,-226 134,-226 134,-232 128,-238 122,-238"/>
<text text-anchor="middle" x="67" y="-223.4" font-family="Helvetica,sans-Serif" font-size="12.00">Prediction Layer (X)</text>
<text text-anchor="middle" x="67" y="-210.4" font-family="Helvetica,sans-Serif" font-size="12.00">(3 units)</text>
</g>
<!-- layer_1 -->
<g id="node2" class="node">
<title>layer_1</title>
<path fill="#e8e8e8" stroke="#444444" stroke-width="1.2" d="M108.5,-137C108.5,-137 25.5,-137 25.5,-137 19.5,-137 13.5,-131 13.5,-125 13.5,-125 13.5,-113 13.5,-113 13.5,-107 19.5,-101 25.5,-101 25.5,-101 108.5,-101 108.5,-101 114.5,-101 120.5,-107 120.5,-113 120.5,-113 120.5,-125 120.5,-125 120.5,-131 114.5,-137 108.5,-137"/>
<text text-anchor="middle" x="67" y="-122.4" font-family="Helvetica,sans-Serif" font-size="12.00">Hidden Layer 1</text>
<text text-anchor="middle" x="67" y="-109.4" font-family="Helvetica,sans-Serif" font-size="12.00">(5 units)</text>
</g>
<!-- layer_0&#45;&gt;layer_1 -->
<g id="edge1" class="edge">
<title>layer_0&#45;&gt;layer_1</title>
<path fill="none" stroke="#444444" d="M67,-201.94C67,-201.94 67,-146.24 67,-146.24"/>
<polygon fill="#444444" stroke="#444444" points="67,-137.24 71.05,-146.24 67,-141.74 67,-146.24 67,-146.24 67,-146.24 67,-141.74 62.95,-146.24 67,-137.24 67,-137.24"/>
<text text-anchor="middle" x="48.5" y="-177.89" font-family="Times,serif" font-size="14.00">tuple</text>
</g>
<!-- layer_2 -->
<g id="node3" class="node">
<title>layer_2</title>
<path fill="#e8e8e8" stroke="#444444" stroke-width="1.2" d="M122,-36C122,-36 12,-36 12,-36 6,-36 0,-30 0,-24 0,-24 0,-12 0,-12 0,-6 6,0 12,0 12,0 122,0 122,0 128,0 134,-6 134,-12 134,-12 134,-24 134,-24 134,-30 128,-36 122,-36"/>
<text text-anchor="middle" x="67" y="-21.4" font-family="Helvetica,sans-Serif" font-size="12.00">Outcome Layer (Y) </text>
<text text-anchor="middle" x="67" y="-8.4" font-family="Helvetica,sans-Serif" font-size="12.00">(2 units)</text>
</g>
<!-- layer_1&#45;&gt;layer_2 -->
<g id="edge2" class="edge">
<title>layer_1&#45;&gt;layer_2</title>
<path fill="none" stroke="#444444" d="M67,-100.94C67,-100.94 67,-45.24 67,-45.24"/>
<polygon fill="#444444" stroke="#444444" points="67,-36.24 71.05,-45.24 67,-40.74 67,-45.24 67,-45.24 67,-45.24 67,-40.74 62.95,-45.24 67,-36.24 67,-36.24"/>
<text text-anchor="middle" x="48.5" y="-76.89" font-family="Times,serif" font-size="14.00">tuple</text>
</g>
</g>
</svg>